<svg width="47" height="47" viewBox="0 0 47 47" fill="none" xmlns="http://www.w3.org/2000/svg">
<circle cx="23.5" cy="23.5" r="23" fill="#F7F7FD" stroke="#E0DEF7"/>
<g opacity="0.5">
<path d="M20.875 32.25H26.125C30.5 32.25 32.25 30.5 32.25 26.125V20.875C32.25 16.5 30.5 14.75 26.125 14.75H20.875C16.5 14.75 14.75 16.5 14.75 20.875V26.125C14.75 30.5 16.5 32.25 20.875 32.25Z" stroke="#000929" stroke-width="2" stroke-linecap="round" stroke-linejoin="round"/>
<path d="M20.875 21.75C21.8415 21.75 22.625 20.9665 22.625 20C22.625 19.0335 21.8415 18.25 20.875 18.25C19.9085 18.25 19.125 19.0335 19.125 20C19.125 20.9665 19.9085 21.75 20.875 21.75Z" stroke="#000929" stroke-width="2" stroke-linecap="round" stroke-linejoin="round"/>
<path d="M15.3363 29.5813L19.6501 26.685C20.3413 26.2213 21.3388 26.2738 21.9601 26.8075L22.2488 27.0613C22.9313 27.6475 24.0338 27.6475 24.7163 27.0613L28.3563 23.9375C29.0388 23.3513 30.1413 23.3513 30.8238 23.9375L32.2501 25.1625" stroke="#000929" stroke-width="2" stroke-linecap="round" stroke-linejoin="round"/>
</g>
<g clip-path="url(#clip0_1_2094)">
<path d="M31 13.6667V20.3333" stroke="#47BEA3" stroke-width="2" stroke-linecap="round" stroke-linejoin="round"/>
<path d="M27.6666 17H34.3333" stroke="#47BEA3" stroke-width="2" stroke-linecap="round" stroke-linejoin="round"/>
</g>
<defs>
<clipPath id="clip0_1_2094">
<rect width="10" height="10" fill="white" transform="translate(26 12)"/>
</clipPath>
</defs>
</svg>
